<?xml version="1.0" standalone="no"?>
<!DOCTYPE svg PUBLIC "-//W3C//DTD SVG 20010904//EN"
 "http://www.w3.org/TR/2001/REC-SVG-20010904/DTD/svg10.dtd">
<svg version="1.0" xmlns="http://www.w3.org/2000/svg"
 width="1000.000000pt" height="1000.000000pt" viewBox="0 0 1000.000000 1000.000000"
 preserveAspectRatio="xMidYMid meet">
<metadata>
Created by potrace 1.14, written by Peter Selinger 2001-2017
</metadata>
<g transform="translate(0.000000,1000.000000) scale(0.100000,-0.100000)"
fill="#000000" stroke="none">
<path d="M670 7731 c-344 -91 -452 -167 -565 -396 -93 -187 -121 -350 -91
-523 34 -196 113 -340 269 -488 149 -143 256 -189 442 -188 128 1 280 34 381
84 198 97 406 345 459 545 42 161 -8 404 -122 601 -95 164 -304 332 -464 373
-134 34 -151 34 -309 -8z"/>
<path d="M5644 7495 c-34 -8 -151 -18 -260 -24 -212 -11 -404 -45 -454 -80
-14 -9 -36 -39 -50 -67 -22 -44 -25 -63 -28 -189 -3 -93 2 -176 12 -247 9 -60
21 -215 26 -345 6 -131 14 -265 20 -298 32 -200 34 -332 35 -2020 0 -1576 1
-1693 17 -1728 30 -65 98 -154 132 -172 32 -18 37 -17 222 18 104 20 253 50
332 66 79 17 203 37 275 46 149 18 161 25 204 109 l25 49 -2 1313 c-1 1266 -7
1678 -29 1869 -5 50 -15 221 -21 380 -7 160 -16 333 -20 385 -5 52 -14 212
-20 355 -13 313 -29 433 -67 489 -30 43 -35 45 -148 74 -115 30 -133 32 -201
17z"/>
<path d="M8827 5669 c-14 -24 -32 -70 -41 -101 -10 -36 -22 -58 -31 -58 -8 0
-49 11 -92 24 -168 53 -276 70 -458 70 -194 0 -320 -20 -510 -81 -332 -107
-574 -249 -762 -446 -339 -356 -468 -822 -387 -1400 32 -230 106 -543 166
-702 103 -275 425 -568 708 -644 94 -25 217 -46 388 -66 160 -19 220 -13 452
45 200 51 316 106 389 186 28 30 51 60 51 65 0 5 4 9 9 9 4 0 11 -24 14 -53 9
-74 33 -150 59 -182 l22 -28 160 9 c89 5 188 8 221 7 33 0 189 -4 347 -7 314
-7 315 -7 370 51 55 58 53 18 55 1013 2 777 5 955 19 1115 13 142 17 292 17
590 -1 442 0 440 -65 502 -57 55 -107 71 -273 83 -82 6 -175 16 -205 22 -30 5
-177 13 -326 15 l-272 5 -25 -43z m-195 -1207 c24 -11 62 -34 86 -51 l43 -32
-3 -362 c-4 -429 -2 -423 -119 -531 -116 -107 -236 -156 -385 -156 -95 0 -157
20 -240 78 -173 122 -231 239 -241 482 -11 270 39 396 200 505 84 57 161 77
332 85 196 10 274 6 327 -18z"/>
<path d="M3150 5655 c-220 -26 -400 -82 -615 -194 -298 -155 -422 -272 -525
-495 -54 -117 -130 -458 -130 -587 0 -146 81 -339 187 -445 152 -152 374 -262
648 -323 146 -32 272 -84 363 -151 44 -32 81 -95 82 -138 0 -42 -45 -116 -86
-139 -86 -48 -395 -56 -557 -14 -43 11 -117 38 -165 59 -48 22 -131 54 -185
72 -144 47 -153 42 -267 -175 -130 -246 -147 -282 -165 -348 -18 -65 -18 -68
1 -102 22 -41 140 -123 281 -196 108 -55 181 -81 308 -108 50 -11 169 -38 265
-59 135 -31 206 -41 310 -46 74 -3 189 -13 255 -23 118 -16 123 -16 227 5 218
44 402 121 525 219 115 91 253 224 305 292 147 194 227 488 199 727 -18 155
-87 336 -181 474 -55 80 -186 202 -277 254 -114 68 -218 104 -398 142 -369 76
-496 132 -511 225 -9 51 12 115 52 159 53 58 90 71 223 77 161 7 237 -9 449
-97 95 -39 198 -76 230 -81 l57 -9 32 36 c97 110 218 333 274 504 31 94 32 99
16 124 -36 54 -301 203 -482 271 -224 84 -501 118 -745 90z"/>
<path d="M500 5594 c-33 -11 -72 -14 -147 -11 -112 5 -141 -4 -180 -60 -26
-36 -53 -259 -53 -433 0 -66 -5 -197 -10 -292 -6 -95 -12 -353 -14 -573 -2
-220 -8 -600 -15 -845 -7 -245 -10 -503 -6 -575 12 -270 25 -389 46 -441 l20
-51 167 -5 c130 -4 176 -2 209 9 29 10 62 13 100 9 216 -22 269 -19 457 23
103 23 186 47 197 57 10 9 29 37 41 63 22 44 23 57 23 271 0 124 -2 338 -4
475 -2 138 1 403 8 590 41 1237 45 1616 16 1691 -11 29 -28 51 -53 66 -36 22
-46 23 -367 30 -181 3 -343 9 -360 12 -16 2 -50 -2 -75 -10z"/>
</g>
</svg>
